# xmcd CD database file
#
# Track frame offsets:
#	150
#	13447
#	65245
#	116548
#	161164
#	217733
#
# Disc length: 3561 seconds
#
# Revision: 0
# Processed by: cddbd v1.5.2PL0 Copyright (c) Steve Scherf et al.
# Submitted via: CDex 1.50
#
DISCID=550de706
DTITLE=Savoy Brown - You Should Have Been There
DYEAR=2004
DGENRE=Blues
TTITLE0=When It Rains
TTITLE1=Where Has Your Heart Gone
TTITLE2=Poor Girl
TTITLE3=Blues Like Midnight
TTITLE4=Street Corner Talking
TTITLE5=Hellbound Train
EXTD=YEAR: 2004
EXTT0=
EXTT1=
EXTT2=
EXTT3=
EXTT4=
EXTT5=
PLAYORDER=
